<?xml version="1.0" encoding="UTF-8"?>
<svg width="32px" height="32px" viewBox="0 0 32 32" version="1.1" xmlns="http://www.w3.org/2000/svg" xmlns:xlink="http://www.w3.org/1999/xlink">
    <title>编组</title>
    <defs>
        <path d="M32.0007749,26.2549708 L32.0007749,29.7734593 L18.2419199,29.7734593 L18.2419199,32 L13.7570568,32 L13.7570568,29.7734593 L0,29.7734593 L0,26.2549708 L32.0007749,26.2549708 Z M13.7570568,7.68547009 L13.7570568,11.208637 L6.07704344,11.208637 C5.21675534,11.208637 4.51579318,11.868646 4.47659109,12.7175888 L4.47479283,12.7931624 L4.47838935,19.2093567 C4.47838935,20.0676563 5.15129864,20.768691 6.00151647,20.8079172 L6.07704344,20.8097166 L13.7570568,20.8097166 L13.7570568,24.3350427 L4.80063773,24.3350427 C2.36039747,24.3350427 0.381231345,22.3852452 0.322967687,19.9607737 L0.321529078,19.8502924 L0.321529078,12.1666217 C0.321529078,9.72919478 2.26113346,7.74556905 4.6812332,7.68690958 L4.79164643,7.68547009 L13.7570568,7.68547009 Z M27.205532,7.68547009 C29.6777813,7.68547009 31.6785265,9.69212776 31.6785265,12.1666217 L31.6785265,19.8502924 C31.6785265,22.3258659 29.6720268,24.3350427 27.1990582,24.3350427 L18.2419199,24.3350427 L18.2419199,20.8097166 L25.9219332,20.8097166 C26.8045198,20.8097166 27.5205873,20.0928475 27.5205873,19.2093567 L27.5223856,12.7931624 C27.5223856,11.9078722 26.8045198,11.208637 25.9219332,11.208637 L18.2419199,11.208637 L18.2419199,7.68547009 L27.205532,7.68547009 Z M13.7570568,14.08583 L13.7570568,17.9346829 L8.63848649,17.9346829 C8.30400994,17.9346829 8.02743739,17.6719748 8.00082312,17.3434098 L7.99866521,17.2912281 L7.99866521,14.7249663 C7.99866521,14.3920828 8.25833411,14.1149798 8.58633692,14.0879892 L8.63848649,14.08583 L13.7570568,14.08583 Z M23.3579726,14.08583 C23.7115107,14.08583 23.9967149,14.3744489 23.9967149,14.7249663 L23.9967149,17.2912281 C23.9967149,17.6435448 23.7115107,17.9346829 23.3579726,17.9346829 L18.2419199,17.9346829 L18.2419199,14.08583 L23.3579726,14.08583 Z M18.2419199,0 L18.2419199,2.24201529 L32.0007749,2.24201529 L32.0007749,5.7608637 L0,5.7608637 L0,2.24201529 L13.7570568,2.24201529 L13.7570568,0 L18.2419199,0 Z" id="path-1"></path>
    </defs>
    <g id="控件" stroke="none" stroke-width="1" fill="none" fill-rule="evenodd">
        <g id="小组件/左侧栏备份" transform="translate(-52.000000, -12.000000)">
            <g id="编组" transform="translate(52.000000, 12.000000)">
                <mask id="mask-2" fill="white">
                    <use xlink:href="#path-1"></use>
                </mask>
                <g id="Clip-4"></g>
                <polygon id="Fill-3" fill="#C70019" mask="url(#mask-2)" points="0 32 32.023433 32 32.023433 0 0 0"></polygon>
            </g>
        </g>
    </g>
</svg>