<?xml version="1.0" encoding="UTF-8"?>
<svg width="1339px" height="794px" viewBox="0 0 1339 794" version="1.1"
  xmlns="http://www.w3.org/2000/svg">
    <!-- Generator: Sketch 49 (51002) - http://www.bohemiancoding.com/sketch -->
    <title>bg</title>
    <desc>Created with Sketch.</desc>
    <defs></defs>
    <g id="🔑-登录" stroke="none" stroke-width="1" fill="none" fill-rule="evenodd">
        <g id="登录-原版" transform="translate(-52.000000, -168.000000)">
            <g id="bg" transform="translate(49.000000, 159.000000)">
                <g id="Group-18" opacity="0.8" transform="translate(76.477984, 754.271382) rotate(-7.000000) translate(-76.477984, -754.271382) translate(100.939146, 600.414240)">
                    <ellipse id="Oval-11" fill="#CFDAE6" fill-rule="nonzero" opacity="0.25" cx="64.064259" cy="32.7289478" rx="21.9507271" ry="21.9406951"></ellipse>
                    <ellipse id="Oval-3" fill="#CFDAE6" fill-rule="nonzero" opacity="0.599999964" cx="6.03355444" cy="13.9781511" rx="5.25755316" ry="5.25515034"></ellipse>
                    <path d="M38.4290063,89.0611067 C44.2363392,89.0611067 48.9441126,84.3554848 48.9441126,78.550806 C48.9441126,72.7461272 44.2363392,68.0405054 38.4290063,68.0405054 C32.6216734,68.0405054 27.9139,72.7461272 27.9139,78.550806 C27.9139,84.3554848 32.6216734,89.0611067 38.4290063,89.0611067 Z" id="Oval-3-Copy" fill="#CFDAE6" fill-rule="nonzero" opacity="0.45"></path>
                    <path d="M64.772347,33.4367122 L120.103292,16.6984409" id="Path-12" stroke="#CFDAE6" stroke-width="1.75231334" stroke-linecap="round" stroke-linejoin="round"></path>
                    <path d="M42.4675759,26.7129508 L7.77126545,14.6809568" id="Path-16" stroke="#E0B4B7" stroke-width="0.708005393" opacity="0.7" stroke-linecap="round" stroke-linejoin="round" stroke-dasharray="1.416010775997062,2.124016364183787"></path>
                    <path d="M64.418303,33.7905944 L44.0083072,69.8814763" id="Path-15" stroke="#BACAD9" stroke-width="0.708005393" stroke-linecap="round" stroke-linejoin="round" stroke-dasharray="1.416010775997062,2.124016364183787"></path>
                    <g id="Group-17" transform="translate(127.600048, 13.914752) rotate(30.000000) translate(-127.600048, -13.914752) translate(118.026919, 4.338508)" fill="#CFDAE6" fill-rule="nonzero">
                        <ellipse id="Oval-4" opacity="0.45" cx="9.2051436" cy="9.20093662" rx="9.2051436" ry="9.20093662"></ellipse>
                        <path d="M18.4102881,18.401873 C18.4102881,13.320336 14.2890049,9.20093636 9.20514451,9.20093636 C4.12128407,9.20093636 9.06822157e-07,13.320336 9.06822157e-07,18.401873 L18.4102881,18.401873 Z" id="Oval-4" transform="translate(9.205145, 13.801405) rotate(180.000000) translate(-9.205145, -13.801405) "></path>
                    </g>
                </g>
                <g id="Group-14" transform="translate(168.959670, 124.718582) rotate(-5.000000) translate(-168.959670, -124.718582) translate(58.112924, 35.508309)">
                    <ellipse id="Oval-2" fill="#CFDAE6" fill-rule="nonzero" opacity="0.25" cx="29.3417857" cy="29.3741142" rx="29.3417857" ry="29.3741142"></ellipse>
                    <ellipse id="Oval-2" fill="#CFDAE6" fill-rule="nonzero" opacity="0.3" cx="29.3417857" cy="29.3741142" rx="21.7346561" ry="21.7586032"></ellipse>
                    <ellipse id="Oval-2-Copy" stroke="#CFDAE6" stroke-width="1.00758017" opacity="0.4" cx="180.397646" cy="139.25506" rx="23.9081217" ry="23.9344634"></ellipse>
                    <ellipse id="Oval-2" fill="#BACAD9" fill-rule="nonzero" opacity="0.5" cx="29.3417857" cy="29.3741142" rx="10.867328" ry="10.8793015"></ellipse>
                    <path d="M29.3417857,40.2534158 L29.3417857,18.4948127 C23.3399262,18.4948127 18.4744576,23.3656419 18.4744576,29.3741142 C18.4744576,35.3825866 23.3399262,40.2534158 29.3417857,40.2534158 Z" id="Oval-2" fill="#BACAD9" fill-rule="nonzero"></path>
                    <g id="Group-9" opacity="0.45" transform="translate(173.324003, 132.051364)" fill="#E6A1A6" fill-rule="nonzero">
                        <ellipse id="Oval-2-Copy-2" cx="7.07364261" cy="7.20369573" rx="6.52039683" ry="6.52758095"></ellipse>
                        <path d="M0.553246347,13.7312767 C4.15436207,13.7312767 7.07364317,10.8087792 7.07364317,7.20369573 C7.07364317,3.59861232 4.15436207,0.676114787 0.553246347,0.676114787 L0.553246347,13.7312767 Z" id="Oval-2-Copy-2" transform="translate(3.813445, 7.203696) scale(-1, 1) translate(-3.813445, -7.203696) "></path>
                    </g>
                    <ellipse id="Oval-10" fill="#CFDAE6" fill-rule="nonzero" cx="220.063393" cy="139.799026" rx="1.63009921" ry="1.63189524"></ellipse>
                    <ellipse id="Oval-10-Copy-2" fill="#E0B4B7" fill-rule="nonzero" opacity="0.35" cx="180.941012" cy="176.788651" rx="1.63009921" ry="1.63189524"></ellipse>
                    <ellipse id="Oval-10-Copy" fill="#E0B4B7" fill-rule="nonzero" opacity="0.35" cx="181.484378" cy="103.353365" rx="2.17346561" ry="2.17586032"></ellipse>
                    <path d="M29.2217599,30.2076667 L172.468486,133.942445" id="Path-11" stroke="#CFDAE6" stroke-width="1.00758017" opacity="0.8"></path>
                </g>
                <g id="Group-10" opacity="0.799999952" transform="translate(1013.214776, 36.953533) rotate(-11.000000) translate(-1013.214776, -36.953533) translate(985.503089, 4.696711)">
                    <ellipse id="Oval-7" stroke="#CFDAE6" stroke-width="0.948310753" cx="44.1508225" cy="32.2568218" rx="11.2725505" ry="11.3847606"></ellipse>
                    <g id="Group-12" transform="translate(34.863089, 23.296593)" fill="#BACAD9" fill-rule="nonzero">
                        <ellipse id="Oval-7" opacity="0.45" cx="9.25605314" cy="8.96022829" rx="8.53981094" ry="8.62481867"></ellipse>
                        <path d="M9.25605314,17.5850469 C13.9724605,17.5850469 17.7958641,13.7235841 17.7958641,8.96022829 C17.7958641,4.19687246 13.9724605,0.335409615 9.25605314,0.335409615 L9.25605314,17.5850469 Z" id="Oval-7"></path>
                    </g>
                    <path d="M34.9265384,25.0088087 L5.76066593,4.80706224" id="Path-2" stroke="#CFDAE6" stroke-width="0.948310753"></path>
                    <ellipse id="Oval" stroke="#CFDAE6" stroke-width="0.948310753" cx="3.28782721" cy="3.32055519" rx="3.28782721" ry="3.32055519"></ellipse>
                    <ellipse id="Oval-Copy" fill="#F7E1AD" fill-rule="nonzero" cx="2.81813761" cy="61.6674535" rx="2.81813761" ry="2.84619016"></ellipse>
                    <path d="M34.8978249,39.6076185 L5.10264517,60.2648981" id="Path-10" stroke="#CFDAE6" stroke-width="0.948310753"></path>
                </g>
                <g id="Group-19" opacity="0.33" transform="translate(1206.959269, 601.224129) rotate(-10.000000) translate(-1206.959269, -601.224129) translate(1072.431627, 481.269073)">
                    <g id="Group-17" transform="translate(142.421481, 105.341448) rotate(-85.000000) translate(-142.421481, -105.341448) translate(130.329109, 93.245140)" fill="#BACAD9" fill-rule="nonzero">
                        <ellipse id="Oval-4" opacity="0.45" cx="11.7564731" cy="11.7602997" rx="11.7564731" ry="11.7602997"></ellipse>
                        <path d="M23.5129468,23.5205992 C23.5129468,17.0255652 18.2493945,11.7602997 11.7564738,11.7602997 C5.26355299,11.7602997 7.05306124e-07,17.0255652 7.05306124e-07,23.5205992 L23.5129468,23.5205992 Z" id="Oval-4" transform="translate(11.756474, 17.640449) rotate(180.000000) translate(-11.756474, -17.640449) "></path>
                    </g>
                    <ellipse id="Oval-5-Copy-6" fill="#CFDAE6" fill-rule="nonzero" cx="203.386984" cy="88.2022472" rx="5.87823653" ry="5.88014981"></ellipse>
                    <path d="M144.604619,89.5254508 L156.264186,17.7451373" id="Path-17" stroke="#BACAD9" stroke-width="1.17551021"></path>
                    <path d="M17.6347096,37.6329588 L128.447448,98.428641" id="Path-18" stroke="#BACAD9" stroke-width="1.17551021"></path>
                    <polyline id="Path-19" stroke="#CFDAE6" stroke-width="1.17551021" points="145.010315 121.267789 176.282054 233.42986 38.7963611 148.694722 127.339675 111.722846"></polyline>
                    <path d="M161.063681,100.545909 L196.920924,89.9662921" id="Path-20" stroke="#E0B4B7" stroke-width="1.17551021" opacity="0.6"></path>
                    <path d="M206.913925,82.7964176 L240.556994,36.4569289" id="Path-24" stroke="#BACAD9" stroke-width="1.17551021"></path>
                    <path d="M268.776578,133.29324 L208.677396,91.1423221" id="Path-25" stroke="#CFDAE6" stroke-width="1.17551021"></path>
                    <ellipse id="Oval-5" fill="#C1D1E0" fill-rule="nonzero" cx="158.124563" cy="8.82022472" rx="8.81735479" ry="8.82022472"></ellipse>
                    <ellipse id="Oval-5-Copy-3" fill="#C1D1E0" fill-rule="nonzero" cx="39.3841847" cy="149.94382" rx="5.29041288" ry="5.29213483"></ellipse>
                    <ellipse id="Oval-5-Copy-2" fill-opacity="0.6" fill="#D1DEED" fill-rule="nonzero" cx="8.81735479" cy="33.5168539" rx="8.81735479" ry="8.82022472"></ellipse>
                    <ellipse id="Oval-5-Copy-4" fill-opacity="0.6" fill="#D1DEED" fill-rule="nonzero" cx="245.710287" cy="30.576779" rx="5.87823653" ry="5.88014981"></ellipse>
                    <ellipse id="Oval-5-Copy-5" fill="#E0B4B7" fill-rule="nonzero" cx="176.934919" cy="234.617978" rx="5.29041288" ry="5.29213483"></ellipse>
                </g>
            </g>
        </g>
    </g>
</svg>
