<?xml version="1.0" encoding="UTF-8"?>
<svg width="136px" height="45px" viewBox="0 0 136 45" version="1.1" xmlns="http://www.w3.org/2000/svg" xmlns:xlink="http://www.w3.org/1999/xlink">
    <title>img-logo</title>
    <defs>
        <path d="M77.6753861,21.0253036 L77.6753861,24.2859312 L70.2618342,24.2859312 C67.0330917,24.2859312 65.4769619,26.236336 65.4225024,28.2176113 L65.4209896,28.3259109 L65.4209896,31.4660931 C65.4209896,33.4493927 66.9196344,35.4281377 70.0873621,35.4979757 L70.2618342,35.5 L77.6753861,35.5 L77.6753861,38.7651822 L70.0919004,38.7651822 C62.667255,38.7651822 60.5488812,35.729251 60.5065238,31.8228745 L60.5060195,31.7019231 L60.5060195,28.0890688 C60.5060195,24.1629555 62.5482509,21.0885628 69.8639773,21.0263158 L70.0919004,21.0253036 L77.6753861,21.0253036 Z M19.6815632,21.0253036 L29.9335645,21.0293522 C36.6018279,21.0293522 37.8004412,23.4979757 37.825654,26.1553644 L37.8261582,27.8092105 C37.8261582,30.0116397 36.8680744,31.7803644 33.9726442,32.2672065 L33.8067444,32.2935223 L38.0601324,38.76417 L32.1134573,38.76417 L26.9761109,30.9473684 L26.9761109,29.7586032 L29.910873,29.7586032 C32.5889694,29.7586032 32.8809329,28.3410931 32.891018,27.5774291 L32.891018,26.6371457 C32.8814371,25.6705466 32.600063,24.3395749 30.0626536,24.2889676 L29.910873,24.2874494 L24.5536716,24.2874494 L24.5536716,38.76417 L19.6815632,38.76417 L19.6815632,21.0253036 Z M40.330791,21.0253036 L50.5848093,21.0293522 C57.2490388,21.0293522 58.4506776,23.4979757 58.4758903,26.1553644 L58.4763946,27.8092105 C58.4763946,30.0116397 57.520832,31.7803644 54.6228806,32.2672065 L54.4569808,32.2935223 L58.7098645,38.76417 L52.7657107,38.76417 L47.6283643,30.9473684 L47.6283643,29.7586032 L50.5636306,29.7586032 C53.2392058,29.7586032 53.5301607,28.3410931 53.5397416,27.5774291 L53.5397416,26.6371457 C53.5301607,25.6705466 53.2502994,24.3395749 50.7154113,24.2889676 L50.5636306,24.2874494 L45.2044122,24.2874494 L45.2044122,38.76417 L40.330791,38.76417 L40.330791,21.0253036 Z M17.1673495,21.0237854 L17.1673495,24.2859312 L9.75581469,24.2859312 C6.52808068,24.2859312 4.97043807,26.2373482 4.91597857,28.2171053 L4.91446581,28.3248988 L4.91446581,31.4645749 C4.91446581,33.4493927 6.41462338,35.4281377 9.58134258,35.4979757 L9.75581469,35.5 L17.1673495,35.5 L17.1673495,38.76417 L9.58688938,38.76417 C2.1637567,38.76417 0.0443744091,35.729251 0.00151276395,31.8228745 L0.0010085093,31.7019231 L0.0010085093,28.0890688 C0.0010085093,24.1629555 2.0447526,21.0870445 9.35896628,21.0247976 L9.58688938,21.0237854 L17.1673495,21.0237854 Z M9.71194453,0 L9.71194453,2.58603239 L14.239647,2.58603239 C15.4120391,2.58603239 16.4442483,3.4534413 16.5022376,4.74139676 L16.5047589,4.8562753 L16.5047589,12.2535425 L9.71194453,12.2535425 L9.71194453,16.5242915 L6.79432714,16.5242915 L6.79432714,12.2535425 L0,12.2535425 L0,2.58603239 L6.79432714,2.58603239 L6.79432714,0 L9.71194453,0 Z M50.4511818,0 L50.4511818,2.58603239 L54.9839269,2.58603239 C56.1553104,2.58603239 57.1865112,3.4534413 57.2445005,4.74139676 L57.2470217,4.8562753 L57.2470217,12.2535425 L50.4511818,12.2535425 L50.4511818,16.5242915 L47.5360857,16.5242915 L47.5360857,12.2535425 L40.7412543,12.2535425 L40.7412543,2.58603239 L47.5360857,2.58603239 L47.5360857,0 L50.4511818,0 Z M68.9195084,0 L68.0426095,1.48937247 L77.4106524,1.48937247 L77.4106524,3.53491903 L66.8439962,3.53491903 L64.546612,7.40232794 L68.3073432,7.40232794 L68.3073432,5.08805668 L71.162433,5.08805668 L71.162433,7.40232794 L77.2049165,7.40232794 L77.2049165,9.44433198 L71.162433,9.44433198 L71.162433,11.6902834 L77.6723605,11.6902834 L77.6723605,13.7338057 L71.162433,13.7338057 L71.162433,16.5242915 L68.3073432,16.5242915 L68.3073432,13.7338057 L61.0632209,13.7338057 L61.0632209,11.6902834 L68.3073432,11.6902834 L68.3073432,9.44433198 L61.5503309,9.44433198 L61.5503309,8.04352227 C61.5503309,7.57388664 61.6300032,7.25151822 61.8962496,6.81275304 L63.8361172,3.53491903 L61.3415695,3.53491903 L61.3415695,1.48937247 L65.0422944,1.48937247 L65.9252442,0 L68.9195084,0 Z M34.9024898,0.254554656 C35.9493224,0.254554656 36.8731169,1.02631579 36.9280807,2.16700405 L36.930602,2.27479757 L36.930602,16.2697368 L20.3174283,16.2697368 L20.3174283,0.254554656 L34.9024898,0.254554656 Z M33.5082257,2.11589069 L22.9304759,2.11589069 L22.9304759,14.4245951 L34.3190671,14.4245951 L34.3190671,2.92054656 C34.3190671,2.49797571 33.9852506,2.11589069 33.5082257,2.11589069 Z M33.4845257,3.42864372 L33.4845257,5.16700405 L29.9517176,5.16700405 L29.9517176,7.17257085 L33.0014497,7.17257085 L33.0014497,8.85475709 L29.9517176,8.85475709 L29.9517176,11.3760121 L31.4402773,11.3760121 L31.4402773,10.1497976 L33.3957769,10.1497976 L33.5732745,13.0956478 L23.7569493,13.0956478 L23.7569493,11.3760121 L27.3195084,11.3760121 L27.3195084,8.85475709 L24.241538,8.85475709 L24.241538,7.17257085 L27.3195084,7.17257085 L27.3195084,5.16700405 L23.7569493,5.16700405 L23.7569493,3.42864372 L33.4845257,3.42864372 Z M6.79432714,4.56831984 L2.90601954,4.56831984 L2.90601954,10.2444332 L6.79432714,10.2444332 L6.79432714,4.56831984 Z M47.5360857,4.56831984 L43.6502994,4.56831984 L43.6502994,10.2444332 L47.5360857,10.2444332 L47.5360857,4.56831984 Z M12.6799874,4.56831984 L9.71194453,4.56831984 L9.71194453,10.2439271 L13.5962181,10.2439271 L13.5962181,5.48785425 C13.5962181,5.01417004 13.2144973,4.56831984 12.6799874,4.56831984 Z M53.4252758,4.56831984 L50.4511818,4.56831984 L50.4511818,10.2439271 L54.3369682,10.2439271 L54.3369682,5.48785425 C54.3369682,5.01417004 53.9582729,4.56831984 53.4252758,4.56831984 Z" id="path-1"></path>
        <path d="M44.8670659,36.9210526 L44.8670659,41.8689271 L25.5763,41.8689271 L25.5763,45 L19.2882446,45 L19.2882446,41.8689271 L0,41.8689271 L0,36.9210526 L44.8670659,36.9210526 Z M19.2882446,10.8076923 L19.2882446,15.7621457 L8.5203908,15.7621457 C7.31421368,15.7621457 6.33142137,16.6902834 6.27645761,17.8841093 L6.27393634,17.9903846 L6.27897888,27.0131579 C6.27897888,28.2201417 7.22243933,29.2059717 8.41449732,29.2611336 L8.5203908,29.263664 L19.2882446,29.263664 L19.2882446,34.2211538 L6.73079105,34.2211538 C3.30942326,34.2211538 0.534509928,31.479251 0.452820674,28.0698381 L0.450803656,27.9144737 L0.450803656,17.1093117 C0.450803656,13.6816802 3.17024898,10.8922065 6.56337851,10.8097166 L6.71818468,10.8076923 L19.2882446,10.8076923 Z M38.1438386,10.8076923 C41.6100851,10.8076923 44.4152537,13.6295547 44.4152537,17.1093117 L44.4152537,27.9144737 C44.4152537,31.395749 41.602017,34.2211538 38.1347621,34.2211538 L25.5763,34.2211538 L25.5763,29.263664 L36.3441538,29.263664 C37.5815947,29.263664 38.5855657,28.2555668 38.5855657,27.0131579 L38.588087,17.9903846 C38.588087,16.7454453 37.5815947,15.7621457 36.3441538,15.7621457 L25.5763,15.7621457 L25.5763,10.8076923 L38.1438386,10.8076923 Z M19.2882446,19.8081984 L19.2882446,25.2206478 L12.1116924,25.2206478 C11.6427356,25.2206478 11.2549638,24.8512146 11.2176489,24.38917 L11.2146234,24.3157895 L11.2146234,20.7069838 C11.2146234,20.2388664 11.5786952,19.8491903 12.0385755,19.8112348 L12.1116924,19.8081984 L19.2882446,19.8081984 Z M32.7493224,19.8081984 C33.2450047,19.8081984 33.6448787,20.2140688 33.6448787,20.7069838 L33.6448787,24.3157895 C33.6448787,24.8112348 33.2450047,25.2206478 32.7493224,25.2206478 L25.5763,25.2206478 L25.5763,19.8081984 L32.7493224,19.8081984 Z M25.5763,0 L25.5763,3.15283401 L44.8670659,3.15283401 L44.8670659,8.10121457 L0,8.10121457 L0,3.15283401 L19.2882446,3.15283401 L19.2882446,0 L25.5763,0 Z" id="path-3"></path>
    </defs>
    <g id="页面-1" stroke="none" stroke-width="1" fill="none" fill-rule="evenodd">
        <g id="登录" transform="translate(-1278.000000, -274.000000)">
            <g id="img-logo" transform="translate(1278.000000, 274.000000)">
                <g id="编组" transform="translate(58.324614, 3.104757)">
                    <mask id="mask-2" fill="white">
                        <use xlink:href="#path-1"></use>
                    </mask>
                    <g id="Clip-2"></g>
                    <polygon id="Fill-1" fill="#1B1715" mask="url(#mask-2)" points="-0.0529467381 38.7980769 77.7031201 38.7980769 77.7031201 -0.00759109312 -0.0529467381 -0.00759109312"></polygon>
                </g>
                <g id="编组" transform="translate(0.000000, 0.000000)">
                    <mask id="mask-4" fill="white">
                        <use xlink:href="#path-3"></use>
                    </mask>
                    <g id="Clip-4"></g>
                    <polygon id="Fill-3" fill="#C70019" mask="url(#mask-4)" points="0 45 44.8988339 45 44.8988339 0 0 0"></polygon>
                </g>
            </g>
        </g>
    </g>
</svg>